# xmcd
#
# Track frame offsets:
#	150
#	17225
#	32545
#	51552
#	64538
#	87059
#	88785
#	101034
#	113416
#	135546
#	153845
#	169718
#
# Disc length: 2290 seconds
#
# Revision: 1
# Processed by: cddbd v1.4PL0 Copyright (c) Steve Scherf et al.
# Submitted via: audiograbber 1.80
#
DISCID=8d08f00c
DTITLE=Katoorah Jayne - Cabbage Music Matinee
DYEAR=1900
DGENRE=
TTITLE0=Malia
TTITLE1=It's All The Rage
TTITLE2=Do You
TTITLE3=Just Another Day
TTITLE4=Purple Man
TTITLE5=Intermission
TTITLE6=Good Thing
TTITLE7=Nothing Better
TTITLE8=Just Kiss Me
TTITLE9=Can't Get You Outta Me
TTITLE10=You Don't Have Me
TTITLE11=Conclusion
EXTD=
EXTT0=
EXTT1=
EXTT2=
EXTT3=
EXTT4=
EXTT5=
EXTT6=
EXTT7=
EXTT8=
EXTT9=
EXTT10=
EXTT11=
PLAYORDER=
